<?xml version="1.0" encoding="UTF-8" standalone="no"?>
<!-- Created with Inkscape (http://www.inkscape.org/) -->

<svg
   xmlns:dc="http://purl.org/dc/elements/1.1/"
   xmlns:cc="http://creativecommons.org/ns#"
   xmlns:rdf="http://www.w3.org/1999/02/22-rdf-syntax-ns#"
   xmlns:svg="http://www.w3.org/2000/svg"
   xmlns="http://www.w3.org/2000/svg"
   xmlns:sodipodi="http://sodipodi.sourceforge.net/DTD/sodipodi-0.dtd"
   xmlns:inkscape="http://www.inkscape.org/namespaces/inkscape"
   width="24.200001"
   height="16"
   viewBox="0 0 6.4029167 4.2333335"
   version="1.1"
   id="svg892"
   inkscape:version="0.92.3 (2405546, 2018-03-11)"
   sodipodi:docname="cps.svg">
  <defs
     id="defs886" />
  <sodipodi:namedview
     id="base"
     pagecolor="#ffffff"
     bordercolor="#666666"
     borderopacity="1.0"
     inkscape:pageopacity="0.0"
     inkscape:pageshadow="2"
     inkscape:zoom="11.313709"
     inkscape:cx="8.2377046"
     inkscape:cy="-3.3140962"
     inkscape:document-units="px"
     inkscape:current-layer="layer1"
     showgrid="false"
     units="px"
     inkscape:window-width="1366"
     inkscape:window-height="704"
     inkscape:window-x="0"
     inkscape:window-y="27"
     inkscape:window-maximized="1" />
  <metadata
     id="metadata889">
    <rdf:RDF>
      <cc:Work
         rdf:about="">
        <dc:format>image/svg+xml</dc:format>
        <dc:type
           rdf:resource="http://purl.org/dc/dcmitype/StillImage" />
        <dc:title />
      </cc:Work>
    </rdf:RDF>
  </metadata>
  <g
     inkscape:label="Layer 1"
     inkscape:groupmode="layer"
     id="layer1"
     transform="translate(0,-292.76666)">
    <path
       style="fill:#4f4f4f;fill-opacity:1;stroke-width:0.11529531"
       d="M 6.2265625 0 L 4.9863281 0.06640625 C 3.498706 0.14434011 2.7910852 0.34445212 1.9589844 0.92578125 C 0.086568639 2.2338757 -0.54027494 4.7869645 0.51171875 6.8203125 C 0.78369355 7.346007 1.5741072 8.1896441 2.1171875 8.5332031 C 2.9508001 9.060296 3.4378543 9.1708178 5.2460938 9.2441406 L 6.9765625 9.3144531 L 7.0058594 12.658203 L 7.0371094 16 L 8.6484375 16 L 8.6484375 12.589844 L 8.6484375 9.2558594 L 10.261719 9.2558594 L 11.875 9.2558594 L 11.875 8.4492188 L 11.875 7.6425781 L 10.246094 7.6425781 L 8.6152344 7.6425781 L 8.6816406 6.8066406 C 8.7686831 5.7228989 9.0209904 5.0195928 9.5410156 4.4121094 C 10.098231 3.7612747 10.702975 3.4960938 11.644531 3.4960938 C 13.469514 3.4926922 14.680545 4.7645775 14.681641 6.6894531 C 14.682359 7.8716137 14.255429 8.7005279 13.376953 9.2265625 C 12.774156 9.5897751 12.704726 9.6015625 11.505859 9.6015625 L 10.261719 9.6015625 L 10.261719 10.408203 L 10.261719 11.216797 L 16.121094 11.216797 C 22.769585 11.216797 22.841882 11.20731 23.558594 10.414062 C 24.03848 9.8829255 24.256917 9.1880864 24.183594 8.4238281 C 24.073572 7.2786691 23.197089 6.5221595 21.330078 5.9609375 C 18.615697 5.1447863 18.411365 5.0276889 18.470703 4.3203125 C 18.526489 3.6548889 18.717832 3.6074219 21.59375 3.6074219 L 24.107422 3.6074219 L 24.074219 2.8300781 L 24.039062 2.0527344 L 21.503906 2.0527344 C 18.527566 2.0546997 18.081981 2.1398897 17.347656 2.8496094 C 16.767348 3.4104535 16.545145 4.1656515 16.726562 4.9726562 C 16.978241 6.0927192 17.599222 6.535657 20.015625 7.3183594 C 21.092186 7.666983 21.93735 8.0108693 22.142578 8.1835938 C 22.520531 8.5016788 22.591305 8.9495408 22.320312 9.3203125 C 22.16675 9.5312101 21.952593 9.5478932 18.802734 9.6015625 C 16.958514 9.6317987 15.465477 9.6317987 15.484375 9.6015625 C 15.503121 9.5699279 15.696803 9.1822246 15.916016 8.7382812 C 16.293704 7.9744009 16.312247 7.8686445 16.304688 6.7773438 C 16.297884 5.9078634 16.236041 5.4613725 16.052734 4.9628906 C 15.337308 3.0184371 13.706112 1.8769531 11.644531 1.8769531 C 8.9326069 1.8769531 7.0332031 3.8778581 7.0332031 6.7324219 L 7.0332031 7.6425781 L 5.5625 7.640625 C 4.2649882 7.6398691 4.0246263 7.609204 3.5136719 7.3710938 C 2.316053 6.8134245 1.7897684 5.9801785 1.7910156 4.6445312 C 1.7922251 3.3546541 2.2773151 2.5816793 3.4589844 1.9863281 C 3.8562506 1.7863911 4.2408507 1.7138278 5.1015625 1.671875 L 6.2265625 1.6152344 L 6.2265625 0.80859375 L 6.2265625 0 z M 11.080078 12.001953 C 10.832331 12.001953 10.637665 12.080864 10.496094 12.236328 C 10.354523 12.391742 10.283203 12.599318 10.283203 12.859375 C 10.283203 13.104087 10.347716 13.306797 10.478516 13.466797 C 10.609315 13.626797 10.787054 13.705078 11.011719 13.705078 C 11.24254 13.705078 11.44484 13.669089 11.617188 13.59375 L 11.556641 13.412109 C 11.416608 13.481401 11.250944 13.517578 11.058594 13.517578 C 10.890863 13.517578 10.755858 13.455433 10.654297 13.333984 C 10.554273 13.210822 10.503906 13.054463 10.503906 12.865234 C 10.503906 12.654362 10.554273 12.491472 10.654297 12.373047 C 10.75432 12.25311 10.898202 12.191406 11.085938 12.191406 C 11.256744 12.191406 11.40992 12.220399 11.546875 12.277344 L 11.617188 12.105469 C 11.454073 12.037689 11.275507 12.001953 11.080078 12.001953 z M 15.003906 12.083984 L 14.783203 12.177734 L 14.783203 12.501953 L 14.548828 12.501953 L 14.548828 12.681641 L 14.783203 12.681641 L 14.783203 13.308594 C 14.783203 13.428783 14.813033 13.528177 14.873047 13.603516 C 14.933061 13.677342 15.017697 13.712891 15.126953 13.712891 C 15.199278 13.712891 15.275451 13.695873 15.355469 13.662109 L 15.330078 13.478516 C 15.260832 13.503712 15.196733 13.517578 15.136719 13.517578 C 15.047469 13.517578 15.003906 13.446735 15.003906 13.306641 L 15.003906 12.681641 L 15.380859 12.681641 L 15.380859 12.501953 L 15.003906 12.501953 L 15.003906 12.083984 z M 12.412109 12.455078 C 12.222835 12.455078 12.070074 12.51527 11.953125 12.636719 C 11.837713 12.758394 11.779297 12.917123 11.779297 13.109375 C 11.779297 13.287819 11.841739 13.432544 11.964844 13.544922 C 12.087948 13.6573 12.241124 13.712891 12.425781 13.712891 C 12.576585 13.712891 12.737396 13.682133 12.908203 13.619141 L 12.882812 13.427734 C 12.716621 13.487703 12.568713 13.517578 12.439453 13.517578 C 12.310193 13.517578 12.205018 13.483355 12.125 13.414062 C 12.046509 13.343259 12.003363 13.246449 11.994141 13.125 L 12.957031 13.125 C 12.949337 12.678739 12.767574 12.455078 12.412109 12.455078 z M 16.980469 12.455078 C 16.803506 12.455078 16.655184 12.517223 16.535156 12.638672 C 16.415129 12.760297 16.355469 12.908614 16.355469 13.083984 C 16.355469 13.261043 16.415129 13.40936 16.535156 13.529297 C 16.655184 13.649234 16.803506 13.708984 16.980469 13.708984 C 17.157431 13.708984 17.305754 13.649234 17.425781 13.529297 C 17.545809 13.409183 17.605469 13.260866 17.605469 13.083984 C 17.605469 12.908438 17.545809 12.760121 17.425781 12.638672 C 17.305754 12.517223 17.157431 12.455078 16.980469 12.455078 z M 13.824219 12.466797 C 13.665723 12.466797 13.530717 12.525223 13.419922 12.640625 C 13.419922 12.582168 13.41188 12.533133 13.396484 12.496094 L 13.191406 12.496094 C 13.209876 12.562361 13.21875 12.66787 13.21875 12.8125 L 13.21875 13.681641 L 13.439453 13.681641 L 13.439453 12.976562 C 13.439453 12.902736 13.47816 12.830128 13.556641 12.757812 C 13.635119 12.685498 13.714488 12.648438 13.792969 12.648438 C 14.013018 12.648438 14.123047 12.770081 14.123047 13.011719 L 14.123047 13.681641 L 14.341797 13.681641 L 14.341797 13.011719 C 14.341797 12.845546 14.295454 12.713754 14.203125 12.615234 C 14.110796 12.516715 13.984254 12.466797 13.824219 12.466797 z M 16.103516 12.466797 C 16.041965 12.466797 15.977865 12.486839 15.910156 12.525391 C 15.843987 12.563942 15.798887 12.603838 15.777344 12.648438 L 15.777344 12.646484 C 15.777344 12.578705 15.764441 12.523555 15.738281 12.480469 L 15.544922 12.480469 C 15.572621 12.574302 15.585936 12.713744 15.585938 12.898438 L 15.585938 13.677734 L 15.806641 13.677734 L 15.806641 13.050781 C 15.806641 12.786114 15.91667 12.654297 16.136719 12.654297 C 16.170568 12.654297 16.196374 12.65707 16.214844 12.662109 L 16.214844 12.474609 C 16.190224 12.46957 16.152758 12.466797 16.103516 12.466797 z M 12.390625 12.634766 C 12.48757 12.634766 12.567353 12.663758 12.628906 12.720703 C 12.691987 12.777648 12.729865 12.852651 12.742188 12.943359 L 12.007812 12.943359 C 12.024741 12.857186 12.067886 12.78502 12.138672 12.726562 C 12.210997 12.666594 12.29522 12.634766 12.390625 12.634766 z M 16.980469 12.642578 C 17.100496 12.642578 17.198035 12.68487 17.273438 12.769531 C 17.350379 12.854193 17.388672 12.95926 17.388672 13.083984 C 17.388672 13.208709 17.350379 13.311823 17.273438 13.396484 C 17.198035 13.481146 17.100496 13.523437 16.980469 13.523438 C 16.860444 13.523438 16.762488 13.481146 16.685547 13.396484 C 16.608606 13.311823 16.570313 13.208709 16.570312 13.083984 C 16.570314 12.95926 16.608606 12.854193 16.685547 12.769531 C 16.762485 12.68487 16.860441 12.642578 16.980469 12.642578 z M 14.445312 14.21875 L 14.445312 15.361328 C 14.445314 15.766846 14.618198 15.978456 14.962891 15.996094 L 14.988281 15.796875 C 14.863637 15.789064 14.778585 15.747214 14.732422 15.671875 C 14.687796 15.594773 14.666016 15.475524 14.666016 15.3125 L 14.666016 14.21875 L 14.445312 14.21875 z M 17.759766 14.283203 C 17.605885 14.283203 17.47449 14.325054 17.365234 14.408203 C 17.257518 14.489841 17.203125 14.597115 17.203125 14.732422 C 17.203125 14.946394 17.367132 15.10637 17.693359 15.210938 C 17.916488 15.281741 18.027344 15.387249 18.027344 15.527344 C 18.027344 15.616541 17.993074 15.6848 17.923828 15.732422 C 17.856119 15.778532 17.770241 15.800781 17.664062 15.800781 C 17.508644 15.800781 17.364761 15.752375 17.232422 15.652344 L 17.138672 15.849609 C 17.29717 15.949641 17.466858 16 17.648438 16 C 17.813091 16 17.955317 15.956826 18.072266 15.869141 C 18.190754 15.779944 18.25 15.661767 18.25 15.515625 C 18.25 15.380066 18.207681 15.274999 18.123047 15.201172 C 18.038411 15.125833 17.915895 15.062616 17.755859 15.011719 C 17.534271 14.940916 17.423828 14.842592 17.423828 14.714844 C 17.423828 14.642529 17.455315 14.584544 17.521484 14.542969 C 17.587654 14.501394 17.66661 14.480469 17.755859 14.480469 C 17.863576 14.480469 17.974848 14.509903 18.091797 14.568359 L 18.1875 14.396484 C 18.069011 14.321146 17.925956 14.283203 17.759766 14.283203 z M 10.806641 14.296875 C 10.688151 14.296875 10.540657 14.310615 10.365234 14.339844 L 10.365234 15.96875 L 10.585938 15.96875 L 10.585938 15.314453 C 10.655186 15.322012 10.711649 15.326172 10.757812 15.326172 C 10.95632 15.326172 11.123937 15.279531 11.257812 15.185547 C 11.393229 15.091739 11.458984 14.960338 11.458984 14.791016 C 11.458984 14.632527 11.398081 14.510443 11.273438 14.425781 C 11.150331 14.339608 10.994375 14.296875 10.806641 14.296875 z M 10.804688 14.486328 C 11.095522 14.486328 11.240234 14.591837 11.240234 14.802734 C 11.240234 15.025978 11.087887 15.136719 10.783203 15.136719 C 10.729345 15.136719 10.664418 15.128399 10.585938 15.113281 L 10.585938 14.494141 C 10.645951 14.489101 10.718513 14.486328 10.804688 14.486328 z M 19.054688 14.742188 C 18.877724 14.742188 18.729403 14.802379 18.609375 14.923828 C 18.489347 15.045453 18.429688 15.193771 18.429688 15.369141 C 18.429686 15.546199 18.489347 15.694516 18.609375 15.814453 C 18.729402 15.93439 18.877724 15.996094 19.054688 15.996094 C 19.23165 15.996094 19.379972 15.93439 19.5 15.814453 C 19.620028 15.69434 19.679688 15.546023 19.679688 15.369141 C 19.679688 15.193594 19.620028 15.045277 19.5 14.923828 C 19.379973 14.802379 19.23165 14.742188 19.054688 14.742188 z M 12.150391 14.753906 C 12.008821 14.753906 11.860084 14.776155 11.703125 14.822266 L 11.724609 15.019531 C 11.872336 14.962586 12.010952 14.933594 12.138672 14.933594 C 12.306405 14.933594 12.400748 15.021454 12.423828 15.195312 C 11.897556 15.202999 11.634766 15.352172 11.634766 15.644531 C 11.634766 15.752374 11.675842 15.83784 11.755859 15.902344 C 11.835877 15.966848 11.934246 16 12.052734 16 C 12.19892 16 12.333097 15.948758 12.453125 15.845703 L 12.486328 16 L 12.689453 15.957031 C 12.657138 15.84163 12.642578 15.740029 12.642578 15.652344 L 12.642578 15.259766 C 12.642578 14.922758 12.478157 14.753906 12.150391 14.753906 z M 15.617188 14.753906 C 15.475616 14.753906 15.326881 14.776155 15.169922 14.822266 L 15.191406 15.019531 C 15.339133 14.962586 15.477748 14.933594 15.605469 14.933594 C 15.773202 14.933594 15.867545 15.021454 15.890625 15.195312 C 15.364352 15.202999 15.101562 15.352172 15.101562 15.644531 C 15.101562 15.752374 15.142639 15.83784 15.222656 15.902344 C 15.302674 15.966848 15.401043 16 15.519531 16 C 15.665717 16 15.799894 15.948758 15.919922 15.845703 L 15.953125 16 L 16.15625 15.957031 C 16.123935 15.84163 16.109375 15.740029 16.109375 15.652344 L 16.109375 15.259766 C 16.109375 14.922758 15.944954 14.753906 15.617188 14.753906 z M 23.064453 14.753906 C 22.922883 14.753906 22.774146 14.776155 22.617188 14.822266 L 22.640625 15.019531 C 22.788351 14.962586 22.925014 14.933594 23.052734 14.933594 C 23.220467 14.933594 23.316763 15.021454 23.339844 15.195312 C 22.813571 15.202999 22.548828 15.352172 22.548828 15.644531 C 22.548828 15.752374 22.589904 15.83784 22.669922 15.902344 C 22.74994 15.966848 22.848309 16 22.966797 16 C 23.112983 16 23.247159 15.948758 23.367188 15.845703 L 23.402344 16 L 23.605469 15.957031 C 23.573154 15.84163 23.556641 15.740029 23.556641 15.652344 L 23.556641 15.259766 C 23.556641 14.922758 23.392219 14.753906 23.064453 14.753906 z M 21.365234 14.787109 L 21.324219 14.970703 L 22.074219 14.970703 L 21.289062 15.835938 L 21.289062 15.966797 L 22.365234 15.966797 L 22.396484 15.783203 L 21.591797 15.783203 L 22.371094 14.929688 L 22.371094 14.787109 L 21.365234 14.787109 z M 12.994141 14.789062 L 12.994141 15.431641 C 12.994141 15.810173 13.158148 16 13.484375 16 C 13.61979 16 13.756453 15.931741 13.896484 15.794922 C 13.914951 15.873284 13.935904 15.940661 13.958984 15.996094 L 14.171875 15.953125 C 14.124172 15.833188 14.099609 15.733982 14.099609 15.652344 L 14.099609 14.789062 L 13.880859 14.789062 L 13.880859 15.486328 C 13.880859 15.567714 13.839783 15.640764 13.759766 15.707031 C 13.679748 15.771535 13.597892 15.804688 13.511719 15.804688 C 13.313213 15.804688 13.212891 15.673703 13.212891 15.412109 L 13.212891 14.789062 L 12.994141 14.789062 z M 19.941406 14.789062 L 19.941406 15.431641 C 19.941406 15.810173 20.105413 16 20.431641 16 C 20.567056 16 20.703719 15.931741 20.84375 15.794922 C 20.862217 15.873284 20.88317 15.940661 20.90625 15.996094 L 21.119141 15.953125 C 21.071438 15.833188 21.046875 15.733982 21.046875 15.652344 L 21.046875 14.789062 L 20.828125 14.789062 L 20.828125 15.486328 C 20.828125 15.567714 20.787049 15.640764 20.707031 15.707031 C 20.627014 15.771535 20.545158 15.804688 20.458984 15.804688 C 20.260479 15.804688 20.160156 15.673703 20.160156 15.412109 L 20.160156 14.789062 L 19.941406 14.789062 z M 19.054688 14.927734 C 19.174715 14.927734 19.272255 14.970025 19.347656 15.054688 C 19.424597 15.139349 19.462891 15.244416 19.462891 15.369141 C 19.462891 15.493865 19.424597 15.598932 19.347656 15.683594 C 19.272255 15.768255 19.174715 15.810547 19.054688 15.810547 C 18.934661 15.810547 18.836707 15.768255 18.759766 15.683594 C 18.682825 15.598932 18.644531 15.493865 18.644531 15.369141 C 18.644531 15.244416 18.682825 15.139349 18.759766 15.054688 C 18.836704 14.970025 18.934659 14.927734 19.054688 14.927734 z M 12.423828 15.382812 L 12.423828 15.59375 C 12.423829 15.652207 12.384292 15.703007 12.302734 15.746094 C 12.222717 15.787669 12.142518 15.808594 12.0625 15.808594 C 11.925545 15.808594 11.857422 15.746259 11.857422 15.623047 C 11.857422 15.470606 12.045281 15.390373 12.423828 15.382812 z M 15.890625 15.382812 L 15.890625 15.59375 C 15.890626 15.652207 15.851088 15.703007 15.769531 15.746094 C 15.689514 15.787669 15.609315 15.808594 15.529297 15.808594 C 15.392342 15.808594 15.324219 15.746259 15.324219 15.623047 C 15.324219 15.470606 15.512078 15.390373 15.890625 15.382812 z M 23.339844 15.382812 L 23.339844 15.59375 C 23.339844 15.652207 23.298354 15.703007 23.216797 15.746094 C 23.136779 15.787669 23.056581 15.808594 22.976562 15.808594 C 22.839608 15.808594 22.771484 15.746259 22.771484 15.623047 C 22.771484 15.470606 22.961297 15.390373 23.339844 15.382812 z "
       transform="matrix(0.26458334,0,0,0.26458334,0,292.76666)"
       id="path1974" />
    <g
       id="g1462"
       transform="translate(0,-1.7570613)"
       style="fill:#273336;fill-opacity:1" />
  </g>
</svg>
