<?xml version="1.0" encoding="UTF-8" standalone="no"?>
<!-- Created with Inkscape (http://www.inkscape.org/) -->

<svg
   xmlns:dc="http://purl.org/dc/elements/1.1/"
   xmlns:cc="http://creativecommons.org/ns#"
   xmlns:rdf="http://www.w3.org/1999/02/22-rdf-syntax-ns#"
   xmlns:svg="http://www.w3.org/2000/svg"
   xmlns="http://www.w3.org/2000/svg"
   xmlns:sodipodi="http://sodipodi.sourceforge.net/DTD/sodipodi-0.dtd"
   xmlns:inkscape="http://www.inkscape.org/namespaces/inkscape"
   width="31.5"
   height="16"
   viewBox="0 0 8.3343758 4.2333332"
   version="1.1"
   id="svg3086"
   inkscape:version="0.92.3 (2405546, 2018-03-11)"
   sodipodi:docname="fatec.svg">
  <defs
     id="defs3080" />
  <sodipodi:namedview
     id="base"
     pagecolor="#ffffff"
     bordercolor="#666666"
     borderopacity="1.0"
     inkscape:pageopacity="0.0"
     inkscape:pageshadow="2"
     inkscape:zoom="5.6"
     inkscape:cx="9.2074184"
     inkscape:cy="26.12653"
     inkscape:document-units="px"
     inkscape:current-layer="layer1"
     showgrid="false"
     units="px"
     inkscape:window-width="1366"
     inkscape:window-height="704"
     inkscape:window-x="0"
     inkscape:window-y="27"
     inkscape:window-maximized="1" />
  <metadata
     id="metadata3083">
    <rdf:RDF>
      <cc:Work
         rdf:about="">
        <dc:format>image/svg+xml</dc:format>
        <dc:type
           rdf:resource="http://purl.org/dc/dcmitype/StillImage" />
        <dc:title></dc:title>
      </cc:Work>
    </rdf:RDF>
  </metadata>
  <g
     inkscape:label="Layer 1"
     inkscape:groupmode="layer"
     id="layer1"
     transform="translate(0,-292.76667)">
    <path
       style="font-style:normal;font-weight:normal;font-size:29.59619904px;line-height:1.25;font-family:sans-serif;letter-spacing:0px;word-spacing:0px;fill:#4f4f4f;fill-opacity:1;stroke:none;stroke-width:0.0877471"
       d="m 0.01233463,292.76627 v 2.49525 h 0.43359 v -1.0574 H 1.4502446 v -0.3462 H 0.44592463 v -0.74209 H 1.5976346 v -0.34956 z m 3.83553997,0.19022 v 0.45069 h -0.30507 v 0.3085 h 0.30507 v 1.0506 c 0,0.35304 0.15995,0.52956 0.47986,0.52956 0.088,0 0.17935,-0.0131 0.27418,-0.0394 v -0.32223 c -0.0491,0.0114 -0.0977,0.0172 -0.14567,0.0172 -0.072,0 -0.12226,-0.0154 -0.15082,-0.0463 -0.0274,-0.032 -0.0411,-0.0834 -0.0411,-0.15425 v -1.03516 h 0.32732 v -0.3085 h -0.32732 v -0.45069 z m -1.2597,0.41643 c -0.14282,0 -0.27249,0.0252 -0.38903,0.0754 -0.1154,0.0503 -0.20678,0.11992 -0.27419,0.20904 -0.0674,0.088 -0.10112,0.1828 -0.10112,0.28448 h 0.41649 c 0,-0.0731 0.0303,-0.13308 0.0908,-0.17993 0.0606,-0.048 0.13823,-0.0719 0.23306,-0.0719 0.10968,0 0.19138,0.0291 0.24508,0.0874 0.0537,0.0571 0.0805,0.13365 0.0805,0.22963 v 0.12171 h -0.25537 c -0.27307,0 -0.48329,0.0531 -0.63068,0.15934 -0.14624,0.10511 -0.21933,0.25652 -0.21933,0.45418 0,0.15652 0.0588,0.28792 0.1765,0.39418 0.11768,0.10625 0.26966,0.1594 0.45589,0.1594 0.19195,0 0.35419,-0.0691 0.48672,-0.20739 0.0137,0.08 0.0297,0.13765 0.048,0.17307 h 0.425 v -0.0291 c -0.0468,-0.0994 -0.0702,-0.23252 -0.0702,-0.39933 v -0.83635 c -0.003,-0.19766 -0.0697,-0.35072 -0.1988,-0.45926 -0.12911,-0.10969 -0.30225,-0.16455 -0.51933,-0.16455 z m 3.0883,0 c -0.15881,0 -0.30276,0.0406 -0.43187,0.12171 -0.12911,0.0811 -0.22966,0.1948 -0.30164,0.34105 -0.0708,0.1451 -0.10627,0.31021 -0.10627,0.4953 v 0.0513 c 0,0.2765 0.0817,0.49819 0.24508,0.665 0.16453,0.16567 0.37876,0.24851 0.64269,0.24851 0.15424,0 0.29309,-0.0303 0.41649,-0.0908 0.12453,-0.0617 0.22394,-0.14797 0.298206,-0.2588 l -0.224546,-0.21425 c -0.11997,0.15424 -0.27532,0.23141 -0.46613,0.23141 -0.13596,0 -0.24907,-0.0446 -0.33933,-0.13372 -0.0891,-0.0891 -0.13997,-0.2102 -0.15254,-0.3633 h 1.211656 v -0.16798 c 0,-0.29477 -0.06914,-0.52271 -0.207386,-0.68381 -0.1371,-0.1611 -0.33191,-0.24164 -0.58441,-0.24164 z m 1.881799,0 c -0.260499,0 -0.466195,0.0851 -0.617011,0.25537 -0.150815,0.1691 -0.2262,0.39474 -0.2262,0.67695 v 0.0428 c 0,0.29591 0.07596,0.52786 0.227917,0.69582 0.151957,0.16795 0.357653,0.25194 0.61701,0.25194 0.133677,0 0.258192,-0.0291 0.373589,-0.0874 0.115397,-0.0583 0.206776,-0.13716 0.274186,-0.23656 0.06741,-0.10054 0.103413,-0.20849 0.107983,-0.32389 h -0.392465 c -0.0046,0.0891 -0.04115,0.16393 -0.109699,0.22449 -0.06855,0.0606 -0.154771,0.0909 -0.258742,0.0909 -0.137105,0 -0.242247,-0.0491 -0.315369,-0.14739 -0.07198,-0.0994 -0.107983,-0.24966 -0.107983,-0.45074 v -0.0669 c 0.0011,-0.1988 0.03829,-0.34676 0.111415,-0.44388 0.07312,-0.0983 0.177117,-0.14739 0.311937,-0.14739 0.105114,0 0.191332,0.0343 0.258742,0.10284 0.06855,0.0685 0.105129,0.15598 0.109699,0.26223 h 0.392465 c -0.0069,-0.20908 -0.07995,-0.37763 -0.219336,-0.50559 -0.138248,-0.12911 -0.317628,-0.19366 -0.538138,-0.19366 z m -1.883509,0.33418 c 0.11539,0 0.20569,0.036 0.27081,0.10799 0.0651,0.0708 0.10222,0.17598 0.11136,0.31536 v 0.0308 h -0.79345 c 0.0194,-0.14282 0.064,-0.2542 0.13366,-0.33418 0.0708,-0.08 0.16336,-0.12 0.27762,-0.12 z m -3.00943,0.68381 h 0.22448 v 0.34963 c -0.0366,0.0674 -0.0914,0.12113 -0.16448,0.16112 -0.072,0.04 -0.14915,0.06 -0.23141,0.06 -0.0891,0 -0.16049,-0.0234 -0.21419,-0.0703 -0.0526,-0.048 -0.0789,-0.11196 -0.0789,-0.19194 0,-0.0983 0.0389,-0.17422 0.11656,-0.22792 0.0777,-0.0537 0.19367,-0.0806 0.34791,-0.0806 z m 1.57016,1.15429 v 0.23619 c -0.0301,-0.0341 -0.0696,-0.0512 -0.11852,-0.0512 -0.0554,0 -0.0996,0.0216 -0.13256,0.0648 -0.033,0.0429 -0.0495,0.0999 -0.0495,0.17098 0,0.0747 0.0166,0.13387 0.0499,0.17736 0.0335,0.0435 0.0773,0.0652 0.13127,0.0652 0.0517,0 0.0931,-0.0187 0.1241,-0.0563 l 0.005,0.0477 h 0.0938 v -0.65483 z m -1.3583,0.0183 c -0.0188,0 -0.0333,0.005 -0.0435,0.0157 -0.01,0.0105 -0.0149,0.0237 -0.0149,0.0396 0,0.0156 0.005,0.0287 0.0149,0.0392 0.0102,0.0102 0.0247,0.0154 0.0435,0.0154 0.0188,0 0.0332,-0.005 0.0434,-0.0154 0.0102,-0.0105 0.0154,-0.0236 0.0154,-0.0392 0,-0.0159 -0.005,-0.0291 -0.0154,-0.0396 -0.0102,-0.0105 -0.0247,-0.0157 -0.0434,-0.0157 z m 4.094588,0 c -0.01876,0 -0.03322,0.005 -0.04345,0.0157 -0.0099,0.0105 -0.01495,0.0237 -0.01495,0.0396 0,0.0156 0.005,0.0287 0.01495,0.0392 0.01023,0.0102 0.02469,0.0154 0.04345,0.0154 0.01876,0 0.03328,-0.005 0.04351,-0.0154 0.01023,-0.0105 0.01532,-0.0236 0.01532,-0.0392 0,-0.0159 -0.0051,-0.0291 -0.01532,-0.0396 -0.01023,-0.0105 -0.02475,-0.0157 -0.04351,-0.0157 z m -1.616248,0.007 c -0.0651,0 -0.11811,0.0162 -0.15904,0.0486 -0.0406,0.0324 -0.061,0.0737 -0.061,0.12367 0,0.0571 0.0283,0.1034 0.0849,0.13893 0.0296,0.0185 0.0694,0.0352 0.11939,0.0503 0.05,0.0151 0.0845,0.03 0.10357,0.0448 0.0193,0.0148 0.029,0.0358 0.029,0.0631 0,0.025 -0.01,0.0452 -0.0286,0.0606 -0.0188,0.0151 -0.0469,0.0226 -0.0844,0.0226 -0.0435,0 -0.0769,-0.01 -0.1002,-0.029 -0.0233,-0.0193 -0.035,-0.0466 -0.035,-0.0819 h -0.10786 c 0,0.0389 0.0104,0.0731 0.0311,0.10234 0.021,0.0293 0.0503,0.0523 0.0878,0.0691 0.0378,0.0165 0.0792,0.0247 0.1241,0.0247 0.0679,0 0.12161,-0.0152 0.16111,-0.0456 0.0398,-0.0307 0.0597,-0.0719 0.0597,-0.12361 0,-0.0318 -0.007,-0.0596 -0.0205,-0.0832 -0.0137,-0.0239 -0.0351,-0.0449 -0.0644,-0.0631 -0.0293,-0.0185 -0.0681,-0.0348 -0.11638,-0.049 -0.0483,-0.0145 -0.083,-0.0292 -0.10406,-0.0443 -0.021,-0.0154 -0.0316,-0.0344 -0.0316,-0.0571 0,-0.027 0.01,-0.0481 0.029,-0.0631 0.0196,-0.0151 0.0471,-0.0226 0.0823,-0.0226 0.0378,0 0.0668,0.009 0.087,0.0277 0.0205,0.0182 0.0307,0.0435 0.0307,0.0759 h 0.10744 c 0,-0.0358 -0.01,-0.0684 -0.029,-0.0976 -0.0193,-0.0296 -0.0459,-0.0523 -0.0797,-0.0682 -0.0338,-0.0159 -0.0723,-0.0239 -0.11552,-0.0239 z m -3.5502,0.009 v 0.62075 h 0.22638 c 0.0696,0 0.12309,-0.0156 0.16032,-0.0469 0.0375,-0.0313 0.0563,-0.076 0.0563,-0.13427 0,-0.0353 -0.009,-0.0654 -0.0278,-0.0904 -0.0182,-0.0253 -0.0441,-0.0425 -0.0776,-0.0516 0.0296,-0.0125 0.052,-0.0301 0.0673,-0.0529 0.0153,-0.0227 0.023,-0.0483 0.023,-0.0767 0,-0.0557 -0.0183,-0.0976 -0.055,-0.12576 -0.0367,-0.0281 -0.0901,-0.0422 -0.16031,-0.0422 z m 4.844154,0.0473 v 0.11215 h -0.07587 v 0.0767 h 0.07587 v 0.26137 c 0,0.0878 0.0398,0.1317 0.119382,0.1317 0.02189,0 0.04462,-0.003 0.06821,-0.01 v -0.0802 c -0.01222,0.003 -0.02428,0.004 -0.03622,0.004 -0.01791,0 -0.03046,-0.004 -0.03757,-0.0115 -0.0068,-0.008 -0.01024,-0.0207 -0.01024,-0.0384 v -0.25752 h 0.08145 v -0.0767 h -0.08145 v -0.11215 z m 0.963512,0 v 0.11215 h -0.07587 v 0.0767 h 0.07587 v 0.26137 c 0,0.0878 0.0398,0.1317 0.119382,0.1317 0.02188,0 0.04462,-0.003 0.06821,-0.01 v -0.0802 c -0.01222,0.003 -0.02428,0.004 -0.03622,0.004 -0.01791,0 -0.0304,-0.004 -0.03751,-0.0115 -0.0068,-0.008 -0.01023,-0.0207 -0.01023,-0.0384 v -0.25752 h 0.08145 v -0.0767 h -0.08145 v -0.11215 z m -5.699806,0.0396 h 0.10492 c 0.037,0 0.0641,0.007 0.0814,0.0205 0.0176,0.0136 0.0264,0.0358 0.0264,0.0665 0,0.0279 -0.01,0.0495 -0.0286,0.0648 -0.0188,0.0151 -0.0449,0.0226 -0.0785,0.0226 h -0.10577 z m 0.61823,0.064 c -0.0355,0 -0.0678,0.006 -0.0968,0.0188 -0.0287,0.0125 -0.0514,0.0299 -0.0682,0.052 -0.0168,0.0219 -0.0252,0.0454 -0.0252,0.0707 h 0.10363 c 0,-0.0182 0.007,-0.0331 0.0225,-0.0447 0.0151,-0.0119 0.0344,-0.0179 0.058,-0.0179 0.0273,0 0.0476,0.007 0.061,0.0218 0.0134,0.0142 0.02,0.0332 0.02,0.0571 v 0.0303 h -0.0635 c -0.0679,0 -0.12022,0.0132 -0.15688,0.0397 -0.0364,0.0261 -0.0546,0.0638 -0.0546,0.11295 0,0.0389 0.0147,0.0716 0.0439,0.0981 0.0293,0.0264 0.067,0.0396 0.11338,0.0396 0.0477,0 0.0881,-0.0171 0.1211,-0.0515 0.003,0.0199 0.007,0.0342 0.0119,0.043 h 0.10571 v -0.007 c -0.0117,-0.0247 -0.0175,-0.0578 -0.0175,-0.0993 v -0.20806 c -8.6e-4,-0.0492 -0.0173,-0.0872 -0.0495,-0.11423 -0.0321,-0.0273 -0.0752,-0.0409 -0.12919,-0.0409 z m 1.13578,0 c -0.0355,0 -0.0678,0.006 -0.0968,0.0188 -0.0287,0.0125 -0.0514,0.0299 -0.0682,0.052 -0.0168,0.0219 -0.0252,0.0454 -0.0252,0.0707 h 0.10363 c 0,-0.0182 0.007,-0.0331 0.0225,-0.0447 0.0151,-0.0119 0.0344,-0.0179 0.058,-0.0179 0.0273,0 0.0476,0.007 0.061,0.0218 0.0134,0.0142 0.02,0.0332 0.02,0.0571 v 0.0303 h -0.0635 c -0.0679,0 -0.12023,0.0132 -0.15689,0.0397 -0.0364,0.0261 -0.0546,0.0638 -0.0546,0.11295 0,0.0389 0.0147,0.0716 0.0439,0.0981 0.0293,0.0264 0.0671,0.0396 0.11338,0.0396 0.0477,0 0.0881,-0.0171 0.1211,-0.0515 0.003,0.0199 0.007,0.0342 0.0119,0.043 h 0.10571 v -0.007 c -0.0117,-0.0247 -0.0175,-0.0578 -0.0175,-0.0993 v -0.20806 c -8.6e-4,-0.0492 -0.0173,-0.0872 -0.0495,-0.11423 -0.0321,-0.0273 -0.0752,-0.0409 -0.12919,-0.0409 z m 0.96523,0 c -0.0355,0 -0.0678,0.006 -0.0968,0.0188 -0.0287,0.0125 -0.0514,0.0299 -0.0682,0.052 -0.0168,0.0219 -0.0252,0.0454 -0.0252,0.0707 h 0.10363 c 0,-0.0182 0.008,-0.0331 0.0226,-0.0447 0.0151,-0.0119 0.0344,-0.0179 0.058,-0.0179 0.0273,0 0.0476,0.007 0.061,0.0218 0.0134,0.0142 0.02,0.0332 0.02,0.0571 v 0.0303 h -0.0636 c -0.0679,0 -0.12022,0.0132 -0.15688,0.0397 -0.0364,0.0261 -0.0546,0.0638 -0.0546,0.11295 0,0.0389 0.0147,0.0716 0.0439,0.0981 0.0293,0.0264 0.067,0.0396 0.11338,0.0396 0.0478,0 0.0881,-0.0171 0.1211,-0.0515 0.003,0.0199 0.007,0.0342 0.012,0.043 h 0.10571 v -0.007 c -0.0116,-0.0247 -0.0175,-0.0578 -0.0175,-0.0993 v -0.20806 c -8.6e-4,-0.0492 -0.0173,-0.0872 -0.0495,-0.11423 -0.0321,-0.0273 -0.0752,-0.0409 -0.12919,-0.0409 z m 1.21766,0 c -0.0355,0 -0.0678,0.006 -0.0968,0.0188 -0.0287,0.0125 -0.0514,0.0299 -0.0682,0.052 -0.0168,0.0219 -0.0252,0.0454 -0.0252,0.0707 h 0.10363 c 0,-0.0182 0.007,-0.0331 0.0225,-0.0447 0.0151,-0.0119 0.0344,-0.0179 0.058,-0.0179 0.0273,0 0.0476,0.007 0.061,0.0218 0.0134,0.0142 0.02,0.0332 0.02,0.0571 v 0.0303 h -0.0635 c -0.0679,0 -0.12022,0.0132 -0.15689,0.0397 -0.0364,0.0261 -0.0546,0.0638 -0.0546,0.11295 0,0.0389 0.0147,0.0716 0.0439,0.0981 0.0293,0.0264 0.0671,0.0396 0.11338,0.0396 0.0477,0 0.0881,-0.0171 0.1211,-0.0515 0.003,0.0199 0.007,0.0342 0.0119,0.043 h 0.10571 v -0.007 c -0.0117,-0.0247 -0.0175,-0.0578 -0.0175,-0.0993 v -0.20806 c -8.5e-4,-0.0492 -0.0173,-0.0872 -0.0495,-0.11423 -0.0321,-0.0273 -0.0752,-0.0409 -0.12919,-0.0409 z m 0.52055,0 c -0.0554,0 -0.10017,0.0206 -0.13427,0.0618 l -0.003,-0.0533 h -0.0976 v 0.46129 h 0.10357 v -0.3283 c 0.0205,-0.0378 0.0516,-0.0567 0.0934,-0.0567 0.0287,0 0.04933,0.007 0.06183,0.0213 0.01279,0.0139 0.01918,0.0356 0.01918,0.0648 v 0.29883 h 0.103571 v -0.30483 c -0.0017,-0.11 -0.05058,-0.16498 -0.146651,-0.16498 z m 0.938386,0 c -0.05173,0 -0.09436,0.0134 -0.127901,0.0401 -0.03354,0.0267 -0.05031,0.06 -0.05031,0.0998 0,0.0475 0.02586,0.0837 0.07759,0.10872 0.02359,0.0114 0.053,0.0207 0.08825,0.0281 0.03525,0.007 0.06044,0.0159 0.0755,0.0256 0.01535,0.01 0.02298,0.0237 0.02298,0.0422 0,0.0168 -0.0071,0.0304 -0.02127,0.0409 -0.01421,0.0102 -0.03498,0.0153 -0.06226,0.0153 -0.02814,0 -0.05073,-0.007 -0.06778,-0.0196 -0.01705,-0.0134 -0.02628,-0.0323 -0.0277,-0.0567 h -0.100629 c 0,0.0276 0.0082,0.0533 0.0247,0.0772 0.01649,0.0239 0.03951,0.0426 0.06907,0.0563 0.02956,0.0136 0.06325,0.0205 0.101058,0.0205 0.05571,0 0.10074,-0.0128 0.135132,-0.0384 0.03439,-0.0259 0.0516,-0.0596 0.0516,-0.10106 0,-0.0247 -0.0057,-0.0457 -0.01704,-0.0631 -0.01108,-0.0173 -0.02829,-0.0322 -0.0516,-0.0444 -0.02302,-0.0125 -0.05484,-0.0231 -0.09548,-0.0319 -0.04064,-0.009 -0.06766,-0.0181 -0.08102,-0.0269 -0.01336,-0.009 -0.02004,-0.0212 -0.02004,-0.0371 0,-0.0176 0.0071,-0.0317 0.02133,-0.0422 0.0145,-0.0105 0.03309,-0.0157 0.05583,-0.0157 0.02444,0 0.04405,0.007 0.05883,0.02 0.01478,0.0131 0.02218,0.0296 0.02218,0.0495 h 0.103571 c 0,-0.0435 -0.017,-0.0789 -0.05111,-0.10614 -0.03382,-0.0273 -0.07834,-0.0409 -0.133477,-0.0409 z m 0.752939,0 c -0.03553,0 -0.06778,0.006 -0.09677,0.0188 -0.02871,0.0125 -0.05144,0.0299 -0.06821,0.052 -0.01677,0.0219 -0.02519,0.0454 -0.02519,0.0707 h 0.103631 c 0,-0.0182 0.0075,-0.0331 0.02255,-0.0447 0.01506,-0.0119 0.03444,-0.0179 0.05804,-0.0179 0.02729,0 0.04756,0.007 0.06092,0.0218 0.01336,0.0142 0.02004,0.0332 0.02004,0.0571 v 0.0303 h -0.06349 c -0.06793,0 -0.120222,0.0132 -0.156888,0.0397 -0.03638,0.0261 -0.0546,0.0638 -0.0546,0.11295 0,0.0389 0.01466,0.0716 0.04394,0.0981 0.02928,0.0264 0.06705,0.0396 0.113376,0.0396 0.04775,0 0.08813,-0.0171 0.121098,-0.0515 0.0034,0.0199 0.0074,0.0342 0.01195,0.043 h 0.105715 v -0.007 c -0.01165,-0.0247 -0.01747,-0.0578 -0.01747,-0.0993 v -0.20806 c -8.53e-4,-0.0492 -0.01734,-0.0872 -0.04946,-0.11423 -0.03212,-0.0273 -0.07518,-0.0409 -0.129187,-0.0409 z m -5.236805,0.009 v 0.46129 h 0.10363 v -0.46129 z m 0.18207,0 0.14065,0.22725 -0.14579,0.23404 h 0.11515 l 0.0916,-0.15775 0.0921,0.15775 h 0.11423 l -0.14579,-0.23404 0.14114,-0.22725 h -0.1151 l -0.0879,0.1518 -0.0861,-0.1518 z m 3.912579,0 v 0.46129 h 0.10357 v -0.46129 z m -2.776359,0.0763 c 0.0423,0 0.073,0.0185 0.092,0.0555 v 0.19697 c -0.0196,0.0378 -0.0506,0.0567 -0.0929,0.0567 -0.0333,0 -0.059,-0.0131 -0.0772,-0.0392 -0.0179,-0.0264 -0.0269,-0.0631 -0.0269,-0.11001 0,-0.0534 0.009,-0.0934 0.0273,-0.11981 0.0182,-0.0267 0.044,-0.0401 0.0776,-0.0401 z m -2.23026,0.10492 h 0.12875 c 0.066,0.001 0.0989,0.0344 0.0989,0.0989 0,0.0298 -0.01,0.0532 -0.0286,0.0699 -0.019,0.0168 -0.0455,0.0251 -0.0793,0.0251 h -0.11981 z m 0.63741,0.0635 h 0.0558 v 0.087 c -0.009,0.0168 -0.0227,0.0301 -0.0409,0.0401 -0.0179,0.01 -0.0371,0.015 -0.0576,0.015 -0.0222,0 -0.0399,-0.006 -0.0533,-0.0175 -0.0131,-0.0119 -0.0196,-0.0279 -0.0196,-0.0478 0,-0.0244 0.01,-0.0433 0.029,-0.0567 0.0193,-0.0134 0.0482,-0.02 0.0865,-0.02 z m 1.13579,0 h 0.0558 v 0.087 c -0.009,0.0168 -0.0227,0.0301 -0.0409,0.0401 -0.0179,0.01 -0.0371,0.015 -0.0576,0.015 -0.0222,0 -0.0399,-0.006 -0.0532,-0.0175 -0.0131,-0.0119 -0.0196,-0.0279 -0.0196,-0.0478 0,-0.0244 0.01,-0.0433 0.029,-0.0567 0.0193,-0.0134 0.0482,-0.02 0.0865,-0.02 z m 0.96522,0 h 0.0559 v 0.087 c -0.009,0.0168 -0.0228,0.0301 -0.0409,0.0401 -0.0179,0.01 -0.0371,0.015 -0.0575,0.015 -0.0222,0 -0.04,-0.006 -0.0533,-0.0175 -0.0131,-0.0119 -0.0196,-0.0279 -0.0196,-0.0478 0,-0.0244 0.01,-0.0433 0.029,-0.0567 0.0193,-0.0134 0.0482,-0.02 0.0865,-0.02 z m 1.21766,0 h 0.0558 v 0.087 c -0.009,0.0168 -0.0227,0.0301 -0.0409,0.0401 -0.0179,0.01 -0.0371,0.015 -0.0576,0.015 -0.0222,0 -0.0399,-0.006 -0.0533,-0.0175 -0.0131,-0.0119 -0.0196,-0.0279 -0.0196,-0.0478 0,-0.0244 0.01,-0.0433 0.029,-0.0567 0.0193,-0.0134 0.0482,-0.02 0.0865,-0.02 z m 2.211877,0 h 0.05583 v 0.087 c -0.0091,0.0168 -0.02269,0.0301 -0.04088,0.0401 -0.01791,0.01 -0.03714,0.015 -0.05761,0.015 -0.02217,0 -0.0399,-0.006 -0.05326,-0.0175 -0.01308,-0.0119 -0.01961,-0.0279 -0.01961,-0.0478 0,-0.0244 0.0097,-0.0433 0.02899,-0.0567 0.01933,-0.0134 0.04816,-0.02 0.08653,-0.02 z m -2.773297,0.4809 v 0.52833 h 0.0757 l 0.004,-0.0402 c 0.0243,0.0314 0.0582,0.0471 0.10179,0.0471 0.0452,0 0.0806,-0.0171 0.10633,-0.0513 0.0259,-0.0342 0.0388,-0.0801 0.0388,-0.13789 v -0.005 c 0,-0.0605 -0.0129,-0.10767 -0.0388,-0.14138 -0.0259,-0.0337 -0.0616,-0.0506 -0.107,-0.0506 -0.0408,0 -0.0732,0.0142 -0.0973,0.0427 v -0.19194 z m -0.82415,0.0275 v 0.50081 h 0.087 v -0.19292 h 0.097 l 0.10045,0.19292 h 0.0932 v -0.004 l -0.11246,-0.20873 c 0.0289,-0.0122 0.0514,-0.0295 0.0674,-0.052 0.0163,-0.0227 0.0245,-0.0508 0.0245,-0.0843 0,-0.0491 -0.0157,-0.0865 -0.0471,-0.11246 -0.0314,-0.0259 -0.0761,-0.0389 -0.13384,-0.0389 z m 2.538515,0 v 0.50081 h 0.314389 v -0.0694 h -0.227365 v -0.43138 z m -2.451495,0.0702 h 0.0918 c 0.0303,4.7e-4 0.053,0.008 0.0681,0.0227 0.0154,0.0147 0.023,0.0354 0.023,0.0623 0,0.0257 -0.008,0.046 -0.0248,0.0609 -0.0165,0.0147 -0.0394,0.022 -0.0688,0.022 h -0.0894 z m 1.28783,0.0516 c -0.0319,0 -0.0608,0.008 -0.0867,0.0245 -0.0259,0.0163 -0.0461,0.0391 -0.0605,0.0685 -0.0142,0.0291 -0.0213,0.0622 -0.0213,0.0994 v 0.0103 c 0,0.0555 0.0164,0.1 0.0492,0.13348 0.033,0.0333 0.076,0.0499 0.129,0.0499 0.031,0 0.0588,-0.006 0.0836,-0.0183 0.025,-0.0124 0.0449,-0.0297 0.0598,-0.0519 l -0.0451,-0.043 c -0.0241,0.031 -0.0553,0.0465 -0.0936,0.0465 -0.0273,0 -0.05,-0.009 -0.0681,-0.0268 -0.0179,-0.0179 -0.0281,-0.0422 -0.0306,-0.0729 h 0.24318 v -0.0337 c 0,-0.0592 -0.0139,-0.10488 -0.0416,-0.13722 -0.0275,-0.0323 -0.0666,-0.0485 -0.1173,-0.0485 z m 0.41238,0 c -0.0447,0 -0.0808,0.0166 -0.10835,0.0499 l -0.002,-0.043 h -0.0787 v 0.37218 h 0.0836 v -0.26481 c 0.0165,-0.0305 0.0416,-0.0458 0.0753,-0.0458 0.0232,0 0.0398,0.006 0.0499,0.0172 0.0103,0.0113 0.0154,0.0287 0.0154,0.0523 v 0.24109 h 0.08359 v -0.24593 c -0.0014,-0.0888 -0.04083,-0.13311 -0.11834,-0.13311 z m 0.342947,0 c -0.04174,0 -0.07614,0.0108 -0.103202,0.0324 -0.02706,0.0215 -0.04057,0.0484 -0.04057,0.0805 0,0.0383 0.0209,0.0675 0.06263,0.0877 0.01903,0.009 0.04278,0.0168 0.07121,0.0227 0.02844,0.006 0.0487,0.0128 0.06086,0.0206 0.01238,0.008 0.01857,0.0191 0.01857,0.034 0,0.0135 -0.0058,0.0246 -0.01722,0.033 -0.01147,0.008 -0.02818,0.0124 -0.05019,0.0124 -0.0227,0 -0.04091,-0.005 -0.05466,-0.0158 -0.01376,-0.0108 -0.02122,-0.026 -0.02237,-0.0458 h -0.0812 c 0,0.0223 0.0067,0.043 0.01998,0.0623 0.0133,0.0193 0.03186,0.0344 0.05571,0.0454 0.02385,0.011 0.05101,0.0165 0.08151,0.0165 0.04495,0 0.08128,-0.0103 0.109025,-0.031 0.02775,-0.0209 0.04167,-0.0481 0.04167,-0.0816 0,-0.0199 -0.0046,-0.0369 -0.01379,-0.0509 -0.0089,-0.014 -0.02281,-0.0259 -0.04161,-0.0358 -0.01857,-0.0101 -0.04424,-0.0187 -0.07704,-0.0258 -0.03279,-0.007 -0.05461,-0.0146 -0.06539,-0.0217 -0.01078,-0.007 -0.01618,-0.0171 -0.01618,-0.0299 0,-0.0142 0.0058,-0.0256 0.01722,-0.0341 0.0117,-0.008 0.0267,-0.0127 0.04504,-0.0127 0.01972,0 0.03557,0.005 0.0475,0.0162 0.01192,0.0105 0.01789,0.0238 0.01789,0.0399 h 0.08359 c 0,-0.0351 -0.01379,-0.0637 -0.04131,-0.0857 -0.02729,-0.022 -0.06319,-0.033 -0.107677,-0.033 z m 0.930787,0 c -0.02867,0 -0.05469,0.005 -0.07808,0.0151 -0.02316,0.0101 -0.0415,0.0241 -0.05503,0.042 -0.01353,0.0177 -0.02029,0.0367 -0.02029,0.0571 h 0.08359 c 0,-0.0147 0.006,-0.0268 0.0182,-0.0362 0.01215,-0.01 0.02779,-0.0144 0.04682,-0.0144 0.02201,0 0.03837,0.006 0.04915,0.0175 0.01078,0.0115 0.01618,0.0268 0.01618,0.0461 v 0.0244 h -0.05123 c -0.05481,0 -0.09703,0.0107 -0.126613,0.032 -0.02935,0.0211 -0.044,0.0515 -0.044,0.0912 0,0.0314 0.0118,0.0578 0.03542,0.0791 0.02362,0.0213 0.05412,0.032 0.0915,0.032 0.03852,0 0.07109,-0.0139 0.09769,-0.0416 0.0028,0.0161 0.006,0.0276 0.0096,0.0347 h 0.08531 v -0.006 c -0.0094,-0.0199 -0.01409,-0.0467 -0.01409,-0.0802 v -0.16786 c -6.88e-4,-0.0397 -0.01398,-0.0704 -0.0399,-0.0922 -0.02591,-0.022 -0.06067,-0.033 -0.104245,-0.033 z m 0.397306,0 c -0.03577,0 -0.06372,0.0162 -0.0839,0.0485 l -0.0021,-0.0417 h -0.07979 v 0.37218 h 0.08359 v -0.25451 c 0.0133,-0.0293 0.03911,-0.044 0.0774,-0.044 0.01169,0 0.02301,8.3e-4 0.03401,0.003 l 3.68e-4,-0.0784 c -0.0078,-0.003 -0.01768,-0.005 -0.0296,-0.005 z m 0.221849,0 c -0.02866,0 -0.05469,0.005 -0.07808,0.0151 -0.02316,0.0101 -0.0415,0.0241 -0.05503,0.042 -0.01353,0.0177 -0.02029,0.0367 -0.02029,0.0571 h 0.08359 c 0,-0.0147 0.006,-0.0268 0.0182,-0.0362 0.01215,-0.01 0.02779,-0.0144 0.04682,-0.0144 0.02201,0 0.03837,0.006 0.04915,0.0175 0.01078,0.0115 0.01618,0.0268 0.01618,0.0461 v 0.0244 h -0.05123 c -0.05481,0 -0.09703,0.0107 -0.126613,0.032 -0.02935,0.0211 -0.044,0.0515 -0.044,0.0912 0,0.0314 0.0118,0.0578 0.03542,0.0791 0.02362,0.0213 0.05412,0.032 0.0915,0.032 0.03853,0 0.07109,-0.0139 0.09769,-0.0416 0.0028,0.0161 0.006,0.0276 0.0096,0.0347 h 0.08531 v -0.006 c -0.0094,-0.0199 -0.01409,-0.0467 -0.01409,-0.0802 v -0.16786 c -6.88e-4,-0.0397 -0.01398,-0.0704 -0.0399,-0.0922 -0.02591,-0.022 -0.06067,-0.033 -0.104244,-0.033 z m -3.249849,0.007 v 0.24116 c 0,0.0447 0.0103,0.0789 0.031,0.10253 0.0209,0.0236 0.0515,0.0354 0.0919,0.0354 0.0452,0 0.08,-0.0145 0.10455,-0.0434 l 0.002,0.0365 h 0.0787 v -0.37218 h -0.0836 v 0.26733 c -0.0142,0.0291 -0.0416,0.0436 -0.0822,0.0436 -0.0392,0 -0.0588,-0.0236 -0.0588,-0.0708 v -0.24012 z m 0.94421,0.0602 c 0.0232,0 0.0413,0.007 0.0544,0.0216 0.0131,0.0142 0.0205,0.0353 0.0224,0.0633 v 0.006 h -0.15928 c 0.004,-0.0287 0.0129,-0.051 0.0268,-0.067 0.0142,-0.0161 0.0328,-0.0241 0.0557,-0.0241 z m -0.39038,0.001 c 0.0271,0 0.0477,0.0101 0.0619,0.0303 0.0142,0.0202 0.0213,0.0505 0.0213,0.0908 v 0.0107 c -4.6e-4,0.0394 -0.008,0.0689 -0.022,0.0884 -0.0142,0.0195 -0.0344,0.0292 -0.0605,0.0292 -0.0365,0 -0.0621,-0.0161 -0.077,-0.0485 v -0.1534 c 0.0147,-0.0316 0.0401,-0.0475 0.0764,-0.0475 z m 2.092369,0.13587 h 0.04504 v 0.0702 c -0.0073,0.0135 -0.01836,0.0243 -0.03303,0.0323 -0.01445,0.008 -0.02988,0.012 -0.04639,0.012 -0.01789,0 -0.03224,-0.005 -0.04302,-0.0141 -0.01055,-0.01 -0.01581,-0.0225 -0.01581,-0.0386 0,-0.0197 0.0078,-0.0349 0.02341,-0.0457 0.01559,-0.0108 0.03884,-0.0162 0.0698,-0.0162 z m 0.619155,0 h 0.04504 v 0.0702 c -0.0073,0.0135 -0.01836,0.0243 -0.03303,0.0323 -0.01445,0.008 -0.02988,0.012 -0.04639,0.012 -0.01789,0 -0.03224,-0.005 -0.04302,-0.0141 -0.01055,-0.01 -0.01581,-0.0225 -0.01581,-0.0386 0,-0.0197 0.0078,-0.0349 0.02341,-0.0457 0.01559,-0.0108 0.03884,-0.0162 0.0698,-0.0162 z"
       id="text3710"
       inkscape:connector-curvature="0" />
  </g>
</svg>
