<?xml version="1.0" encoding="UTF-8" standalone="no"?>
<!-- Created with Inkscape (http://www.inkscape.org/) -->

<svg
   xmlns:dc="http://purl.org/dc/elements/1.1/"
   xmlns:cc="http://creativecommons.org/ns#"
   xmlns:rdf="http://www.w3.org/1999/02/22-rdf-syntax-ns#"
   xmlns:svg="http://www.w3.org/2000/svg"
   xmlns="http://www.w3.org/2000/svg"
   xmlns:sodipodi="http://sodipodi.sourceforge.net/DTD/sodipodi-0.dtd"
   xmlns:inkscape="http://www.inkscape.org/namespaces/inkscape"
   width="78"
   height="16"
   viewBox="0 0 20.637499 4.2333332"
   version="1.1"
   id="svg1984"
   inkscape:version="0.92.3 (2405546, 2018-03-11)"
   sodipodi:docname="governo-sp.svg">
  <defs
     id="defs1978" />
  <sodipodi:namedview
     id="base"
     pagecolor="#ffffff"
     bordercolor="#666666"
     borderopacity="1.0"
     inkscape:pageopacity="0.0"
     inkscape:pageshadow="2"
     inkscape:zoom="7.9195959"
     inkscape:cx="39.425731"
     inkscape:cy="10.014868"
     inkscape:document-units="px"
     inkscape:current-layer="layer1"
     showgrid="false"
     units="px"
     inkscape:window-width="1366"
     inkscape:window-height="704"
     inkscape:window-x="0"
     inkscape:window-y="27"
     inkscape:window-maximized="1" />
  <metadata
     id="metadata1981">
    <rdf:RDF>
      <cc:Work
         rdf:about="">
        <dc:format>image/svg+xml</dc:format>
        <dc:type
           rdf:resource="http://purl.org/dc/dcmitype/StillImage" />
        <dc:title></dc:title>
      </cc:Work>
    </rdf:RDF>
  </metadata>
  <g
     inkscape:label="Layer 1"
     inkscape:groupmode="layer"
     id="layer1"
     transform="translate(0,-292.76667)">
    <path
       style="fill:#4d4d4d;fill-opacity:1;stroke-width:0.02833098"
       d="m 4.3692806,296.97056 c -0.0859,-0.0186 -0.201959,-0.0619 -0.257918,-0.0965 -0.200893,-0.12416 -0.547969,-0.52583 -0.850815,-0.98461 -0.456312,-0.6913 -0.629704,-0.82747 -1.156411,-0.90829 -0.281699,-0.0432 -1.57496402,-0.0592 -1.91318402,-0.0238 l -0.170122,0.018 0.130244,-0.13296 0.130241,-0.13296 0.663025,-0.0157 c 0.96450902,-0.0228 1.50061802,0.0397 1.81827002,0.21189 0.16467,0.0893 0.298862,0.24465 0.642023,0.74346 0.600083,0.87228 0.866465,1.10289 1.275459,1.1043 h 0.182968 l -0.125123,0.1275 c -0.135612,0.13816 -0.138076,0.13877 -0.368657,0.0891 z m 2.373361,-0.23065 c -0.08944,-0.0225 -0.213743,-0.0672 -0.276229,-0.0991 l -0.113607,-0.058 v -0.24259 c 0,-0.13344 0.0096,-0.23784 0.02126,-0.23197 0.421943,0.21125 0.472522,0.22988 0.629338,0.23203 0.174455,0.003 0.256004,-0.0382 0.256004,-0.12743 0,-0.0677 -0.07442,-0.11391 -0.358208,-0.22242 -0.126896,-0.0485 -0.284047,-0.12686 -0.349222,-0.17405 -0.123864,-0.0898 -0.225778,-0.26778 -0.226871,-0.39637 -3.21e-4,-0.0402 -0.0068,-0.0793 -0.01426,-0.0868 -0.0075,-0.007 -0.106309,0.003 -0.219563,0.0225 -0.113254,0.0199 -0.304096,0.0367 -0.424089,0.0373 -0.556771,0.003 -0.732482,-0.12146 -1.283005,-0.90787 -0.277829,-0.39685 -0.559868,-0.6982 -0.750636,-0.80202 -0.325435,-0.17713 -0.840962,-0.25554 -1.502044,-0.22849 -0.210356,0.009 -0.420713,0.0209 -0.467459,0.0276 -0.07536,0.0106 -0.04965,-0.0222 0.226646,-0.28709 0.171404,-0.16437 0.337841,-0.31673 0.369862,-0.33858 0.03691,-0.0251 0.216199,-0.0519 0.489819,-0.0731 0.574754,-0.0444 1.353378,0.003 1.565472,0.0932 0.185464,0.0798 0.343669,0.26033 0.532335,0.60749 0.379919,0.69906 0.475763,0.85554 0.600488,0.98027 0.18998,0.18998 0.359399,0.23527 0.790535,0.21144 0.280581,-0.0154 0.743225,-0.0878 0.945094,-0.14761 0.04549,-0.0135 0.03581,0.003 -0.03821,0.0667 -0.08058,0.0689 -0.149753,0.0936 -0.369207,0.13222 -0.615309,0.1081 -1.043169,0.10482 -1.267656,-0.01 -0.207157,-0.10569 -0.369733,-0.32589 -0.774458,-1.04899 -0.233379,-0.41696 -0.375172,-0.57594 -0.583074,-0.65374 l -0.158898,-0.0594 -0.08164,0.0782 -0.08165,0.0782 0.141147,0.046 c 0.281991,0.0919 0.394664,0.21895 0.77129,0.86958 0.363504,0.62795 0.624885,0.87999 0.962765,0.92846 0.167529,0.0241 0.714519,-0.0334 0.972858,-0.10218 0.320989,-0.0854 0.586462,-0.0708 0.914734,0.0505 l 0.120408,0.0445 v 0.22582 c 0,0.20428 -0.0047,0.22384 -0.04958,0.20469 -0.380314,-0.16238 -0.682556,-0.21256 -0.782225,-0.12984 -0.103591,0.086 -0.02053,0.16039 0.336874,0.30183 0.198876,0.0787 0.315486,0.14446 0.399148,0.22502 0.308953,0.29763 0.197122,0.79522 -0.209897,0.93389 -0.192293,0.0655 -0.473767,0.0782 -0.664371,0.0299 z m -0.518085,-1.54288 c 0.09985,-0.0234 0.184908,-0.0899 0.184908,-0.14452 0,-0.0106 -0.05418,-0.009 -0.120405,0.004 -0.06623,0.0129 -0.264622,0.0238 -0.440886,0.0244 -0.285232,0 -0.337083,-0.007 -0.471464,-0.0702 -0.191002,-0.0904 -0.431725,-0.33139 -0.621917,-0.62268 -0.08139,-0.12467 -0.229155,-0.35191 -0.328368,-0.50501 -0.210774,-0.32522 -0.369951,-0.47604 -0.588804,-0.55792 l -0.15788,-0.0591 -0.06923,0.0692 -0.06923,0.0692 0.189007,0.0902 c 0.264044,0.12602 0.462993,0.33582 0.793292,0.83652 0.403266,0.61134 0.612341,0.81513 0.91511,0.89207 0.120032,0.0305 0.614169,0.0138 0.785868,-0.0267 z m -3.182746,-1.87022 c 0.221946,-0.0689 0.386443,-0.17777 0.40989,-0.27119 0.02358,-0.0939 -0.02059,-0.14037 -0.174459,-0.18345 -0.321008,-0.0898 -0.949841,0.0907 -1.064962,0.30581 -0.02978,0.0556 -0.02637,0.0733 0.0238,0.12348 0.03221,0.0322 0.101529,0.0695 0.15405,0.0829 0.136502,0.0347 0.441429,0.008 0.651677,-0.0575 z m -0.45486,-0.009 c 0.02457,-0.019 0.05208,-0.0633 0.06115,-0.0985 0.01972,-0.0765 -0.06628,-0.14986 -0.150138,-0.12792 -0.08438,0.0222 -0.06509,-0.0112 0.03724,-0.0641 0.163646,-0.0847 0.271629,-0.0962 0.499675,-0.0532 0.118629,0.0225 0.232943,0.047 0.254035,0.0548 0.04863,0.018 -0.328121,0.21067 -0.413052,0.21141 -0.03468,2.9e-4 -0.104802,0.026 -0.15582,0.0571 -0.105522,0.0643 -0.210822,0.0805 -0.13309,0.0206 z m 0.790863,0.0654 c 0.06547,-0.0414 -1.45e-4,-0.0818 -0.106004,-0.0653 -0.114137,0.0177 -0.125673,0.0931 -0.01417,0.0924 0.04285,-2.3e-4 0.09693,-0.0125 0.12017,-0.027 z m -1.327095,-0.0919 c -0.02416,-0.0254 -0.145878,0.005 -0.145878,0.0357 0,0.0361 0.0956,0.046 0.132204,0.0138 0.01818,-0.0161 0.02432,-0.0383 0.01368,-0.0495 z m 0.396637,-0.42496 c -0.02416,-0.0254 -0.145882,0.005 -0.145882,0.0357 0,0.0361 0.09561,0.046 0.132204,0.0138 0.01818,-0.0161 0.02432,-0.0383 0.01368,-0.0495 z m 1.383991,0.0587 c 0,-0.0135 0.01911,-0.0241 0.0425,-0.0241 0.05131,0 0.05668,-0.0472 0.0072,-0.0637 -0.05235,-0.0174 -0.219737,0.0401 -0.219663,0.0755 2.9e-5,0.017 0.03828,0.0321 0.08499,0.0337 0.04671,0.003 0.08493,-0.008 0.08493,-0.0212 z m 6.6294494,3.8177 c -0.219704,-0.0489 -0.36288,-0.13113 -0.5194334,-0.29849 -0.154953,-0.16566 -0.214735,-0.2903 -0.245628,-0.51205 -0.06895,-0.49499 0.203636,-0.94243 0.6582394,-1.0805 0.27487,-0.0835 0.632261,-0.0651 0.855361,0.0441 0.201422,0.0985 0.420426,0.33765 0.488409,0.53322 0.07932,0.2282 0.06826,0.55939 -0.02551,0.76424 -0.133344,0.29126 -0.385274,0.48506 -0.724107,0.55702 -0.183585,0.039 -0.285233,0.0374 -0.487318,-0.007 z m 0.475952,-0.48205 c 0.177713,-0.0924 0.264662,-0.25297 0.264687,-0.48856 2.9e-5,-0.29637 -0.176877,-0.49544 -0.455476,-0.51253 -0.197064,-0.0122 -0.352959,0.0692 -0.448573,0.23405 -0.05454,0.094 -0.06402,0.14571 -0.05704,0.31118 0.0094,0.2223 0.07405,0.34571 0.231462,0.4417 0.106311,0.0648 0.353115,0.0723 0.464942,0.0141 z m 5.034425,0.48343 c -0.276585,-0.0719 -0.458303,-0.21468 -0.564121,-0.4433 -0.05373,-0.11607 -0.06002,-0.1896 -0.06849,-0.80068 l -0.0093,-0.67285 h 0.269884 0.269884 l 0.0086,0.63546 c 0.008,0.59271 0.01256,0.6408 0.06778,0.71536 0.126565,0.17086 0.429045,0.18197 0.580106,0.0212 0.06837,-0.0727 0.06906,-0.0791 0.07754,-0.72278 l 0.0086,-0.64937 h 0.267664 0.267664 v 0.63231 c 0,0.76354 -0.02114,0.86473 -0.22269,1.06627 -0.08498,0.085 -0.18452,0.15092 -0.274099,0.18153 -0.190488,0.0651 -0.50442,0.0821 -0.678946,0.0367 z m 3.343057,-0.003 c -0.318663,-0.0784 -0.559068,-0.27029 -0.687985,-0.54899 -0.06097,-0.13183 -0.07511,-0.2044 -0.07572,-0.38872 -9.64e-4,-0.30244 0.06331,-0.48169 0.243669,-0.67903 0.198913,-0.21763 0.383369,-0.30176 0.701485,-0.31988 0.603213,-0.0344 1.032971,0.28757 1.110015,0.83161 0.0774,0.54654 -0.26109,1.01256 -0.809093,1.11384 -0.204864,0.0379 -0.299745,0.0361 -0.482367,-0.009 z m 0.526585,-0.50649 c 0.307743,-0.20739 0.296965,-0.73678 -0.01875,-0.9211 -0.08809,-0.0514 -0.143961,-0.0629 -0.268871,-0.0552 -0.285143,0.0177 -0.457109,0.21737 -0.457109,0.53128 0,0.22076 0.0879,0.37318 0.27481,0.47655 0.103966,0.0575 0.363673,0.0401 0.469923,-0.0315 z m -12.0626694,0.34179 c 0.03609,-0.0824 0.2231,-0.51031 0.415576,-0.95098 l 0.349955,-0.80128 0.294918,0.008 0.294918,0.008 0.309784,0.79325 c 0.170382,0.4363 0.334979,0.8602 0.365769,0.94202 l 0.05598,0.14873 h -0.28139 -0.28139 l -0.06226,-0.17077 -0.06226,-0.17073 -0.381284,0.008 -0.381285,0.008 -0.06253,0.15583 -0.06253,0.15579 -0.288788,0.008 -0.288792,0.008 z m 1.23777,-0.60697 c 0,-0.0376 -0.184825,-0.51985 -0.199287,-0.52001 -0.0083,-9e-5 -0.03558,0.054 -0.06056,0.12024 -0.02499,0.0662 -0.07217,0.18734 -0.104857,0.26913 l -0.05943,0.14876 h 0.212068 c 0.11664,0 0.212069,-0.008 0.212069,-0.018 z m 3.2517214,-0.19438 0.0078,-0.94908 h 0.46158 c 0.536529,0 0.713269,0.0374 0.857383,0.18153 0.156297,0.15631 0.195018,0.47806 0.08349,0.69373 -0.09714,0.18786 -0.391275,0.31465 -0.729938,0.31465 H 12.78392 v 0.35413 0.35413 l -0.262062,3e-5 h -0.262062 z m 0.871724,-0.25367 c 0.08339,-0.0834 0.08691,-0.1294 0.01651,-0.21632 -0.04316,-0.0533 -0.08136,-0.0657 -0.205399,-0.0669 h -0.152377 l -0.0084,0.17706 -0.0084,0.17707 h 0.144295 c 0.115425,0 0.158207,-0.0138 0.213832,-0.0695 z m 0.455252,0.58657 c 0.147812,-0.3389 0.334121,-0.7664 0.414021,-0.94999 l 0.145278,-0.33382 0.295939,0.008 0.29594,0.008 0.364384,0.93492 c 0.200414,0.51419 0.36457,0.93809 0.364796,0.94201 2.54e-4,0.004 -0.125526,0.007 -0.279445,0.007 h -0.279858 l -0.06357,-0.16996 -0.06357,-0.17 h -0.37531 -0.375309 l -0.07372,0.17 -0.07372,0.16996 h -0.2823 -0.282296 z m 1.031104,-0.14167 c 6.74e-4,-0.039 -0.182618,-0.51705 -0.1978,-0.51644 -0.0082,3.2e-4 -0.06125,0.12142 -0.117847,0.26916 l -0.102901,0.26855 h 0.209142 c 0.115027,0 0.209261,-0.01 0.209406,-0.0212 z m 2.662845,-0.19123 v -0.94908 h 0.269146 0.269146 v 0.73582 0.73578 l 0.389549,0.008 0.38955,0.008 0.0083,0.2054 0.0083,0.2054 h -0.667017 -0.667018 z m -12.7387834,0.7212 c -0.257099,-0.0783 -0.527822,-0.36636 -1.01051,-1.07526 -0.290459,-0.42656 -0.539534,-0.6954 -0.729003,-0.78686 -0.257565,-0.12435 -0.596421,-0.16155 -1.474798,-0.16193 H 0.52528558 l 0.116074,-0.10347 0.116075,-0.10347 0.37226702,-0.0202 c 0.409987,-0.0222 1.094361,0.0193 1.410105,0.0858 0.267876,0.0563 0.528104,0.18381 0.674438,0.33045 0.06726,0.0674 0.236158,0.28191 0.375326,0.47668 0.527041,0.73765 0.749993,0.98834 0.986253,1.10899 0.14267,0.0729 0.423601,0.0987 0.64008,0.0588 l 0.152155,-0.028 -0.117131,0.11716 -0.117128,0.11718 -0.24751,0.006 c -0.136133,0.003 -0.287562,-0.006 -0.336511,-0.0212 z m 0.253314,-0.41981 c -0.304994,-0.1054 -0.501766,-0.30222 -0.905177,-0.90543 -0.276495,-0.41343 -0.644413,-0.78738 -0.893262,-0.90787 -0.298921,-0.14475 -0.59424,-0.18522 -1.361801,-0.18667 -0.370032,0 -0.67282002,-0.009 -0.67286102,-0.0193 -3.9e-5,-0.01 0.04606,-0.0531 0.10245402,-0.0961 l 0.102528,-0.0782 0.626995,0.0164 c 1.278158,0.0334 1.496783,0.13411 2.101993,0.96855 0.498444,0.68721 0.78217,0.97064 1.053388,1.05226 0.190208,0.0572 0.502582,0.0427 0.786337,-0.0367 0.04375,-0.0122 0.03474,0.007 -0.03956,0.0851 -0.0687,0.0721 -0.135949,0.10948 -0.235123,0.13075 -0.208192,0.0446 -0.499283,0.0346 -0.665914,-0.0231 z m 0.288982,-0.35317 c -0.304516,-0.1017 -0.536354,-0.30768 -0.866411,-0.7698 -0.437388,-0.6124 -0.693742,-0.86653 -1.031762,-1.02281 -0.213922,-0.0989 -0.614638,-0.15274 -1.28394,-0.17244 l -0.603999,-0.0177 0.07355,-0.0734 0.07355,-0.0734 0.672106,0.003 c 0.596042,0.003 0.697754,0.01 0.898753,0.0644 0.523491,0.14221 0.739469,0.30704 1.155585,0.88185 0.639215,0.88307 0.845864,1.04825 1.311219,1.04825 0.153719,0 0.488489,-0.0495 0.675168,-0.0999 0.04183,-0.0112 0.0238,0.017 -0.06088,0.0953 -0.142262,0.13167 -0.180659,0.14218 -0.587966,0.16071 -0.218477,0.01 -0.345519,0.003 -0.424966,-0.0238 z m 3.686758,-1.04134 c -0.132149,-0.0536 -0.244542,-0.0516 -0.244542,0.004 0,0.0145 -0.03825,0.0263 -0.08499,0.0263 -0.04916,0 -0.08495,-0.0148 -0.08489,-0.0354 2.29e-4,-0.073 0.109649,-0.21121 0.195322,-0.24671 0.07768,-0.0322 0.109512,-0.0292 0.254154,0.0234 0.195538,0.0713 0.267577,0.0754 0.315354,0.0177 0.04025,-0.0485 0.169987,-0.0579 0.169987,-0.0122 0,0.0451 -0.0563,0.14578 -0.121802,0.2177 -0.07296,0.0801 -0.208782,0.0817 -0.398592,0.005 z m -2.078263,-0.36447 c -0.126643,-0.0308 -0.226071,-0.10122 -0.272936,-0.19293 -0.190678,-0.37318 0.06852,-0.72802 0.494879,-0.67752 0.194574,0.0231 0.251888,0.0605 0.251888,0.16476 0,0.0722 -0.0085,0.0834 -0.04958,0.0656 -0.02727,-0.0119 -0.108432,-0.0344 -0.180362,-0.0504 -0.176194,-0.039 -0.310116,0.0331 -0.34884,0.18786 -0.03345,0.13363 0.03434,0.29306 0.135415,0.31844 0.12736,0.0321 0.230103,0.004 0.239939,-0.0652 0.0069,-0.0485 -0.005,-0.0637 -0.04958,-0.0637 -0.04366,0 -0.05863,-0.018 -0.05863,-0.0708 0,-0.0678 0.0075,-0.0708 0.171337,-0.0708 h 0.171336 l -0.0084,0.17562 c -0.0078,0.16164 -0.01519,0.17944 -0.09343,0.2239 -0.106049,0.0602 -0.283103,0.0845 -0.403006,0.0552 z m 0.923718,-0.006 c -0.05641,-0.0154 -0.145059,-0.0718 -0.196989,-0.12538 -0.08296,-0.0856 -0.09562,-0.11886 -0.104366,-0.27427 -0.0124,-0.22033 0.05212,-0.33912 0.22744,-0.41869 0.312319,-0.1418 0.641059,0.0141 0.687892,0.32663 0.02396,0.15981 -0.07161,0.37186 -0.199769,0.44317 -0.11247,0.0626 -0.287436,0.0831 -0.414208,0.0485 z m 0.271285,-0.18333 c 0.06184,-0.0238 0.12876,-0.15911 0.12876,-0.26046 0,-0.10742 -0.09233,-0.22277 -0.196595,-0.24567 -0.255537,-0.0561 -0.415126,0.30398 -0.207202,0.46752 0.07106,0.0559 0.187427,0.0722 0.275037,0.0386 z m 4.2225884,0.19017 c -0.280125,-0.0698 -0.422733,-0.38837 -0.288641,-0.64487 0.08133,-0.15558 0.205592,-0.22178 0.416128,-0.22178 0.147453,0 0.202586,0.0132 0.276656,0.066 0.253467,0.18075 0.249377,0.58409 -0.0075,0.74041 -0.102268,0.0622 -0.280248,0.0893 -0.396633,0.0603 z m 0.309119,-0.25972 c 0.121041,-0.14384 0.07404,-0.3521 -0.0953,-0.42223 -0.16184,-0.067 -0.341307,0.0723 -0.341307,0.26499 0,0.0386 0.03301,0.10928 0.07335,0.15724 0.05834,0.0693 0.09549,0.0872 0.181632,0.0872 0.08614,0 0.12329,-0.0177 0.181632,-0.0872 z m 2.028186,0.25291 c -0.194323,-0.0563 -0.311641,-0.22229 -0.311641,-0.44108 0,-0.27177 0.231728,-0.45889 0.527028,-0.42561 0.140665,0.0157 0.242049,0.0769 0.335316,0.20199 0.0845,0.1133 0.08012,0.36901 -0.0084,0.49339 -0.11133,0.15634 -0.342088,0.22926 -0.542248,0.17131 z m 0.267874,-0.18336 c 0.06184,-0.0238 0.12876,-0.15911 0.12876,-0.26046 0,-0.26575 -0.352994,-0.34163 -0.467433,-0.10044 -0.108198,0.22801 0.101811,0.45181 0.338673,0.3609 z m 1.75779,0.19775 c -0.173376,-0.0408 -0.212483,-0.072 -0.212483,-0.16999 v -0.0963 l 0.112198,0.0572 c 0.165672,0.0845 0.312769,0.0711 0.312769,-0.0283 0,-0.0349 -0.04204,-0.0673 -0.131886,-0.10167 -0.205031,-0.0783 -0.293081,-0.16599 -0.293081,-0.29185 0,-0.19871 0.211944,-0.3017 0.475089,-0.23083 0.107442,0.0289 0.119865,0.0412 0.119865,0.11808 0,0.0768 -0.0067,0.0834 -0.06375,0.0632 -0.116643,-0.0414 -0.316618,-0.0286 -0.326383,0.0212 -0.0062,0.0315 0.04932,0.0705 0.187447,0.13155 0.168531,0.0745 0.200866,0.10058 0.228666,0.1848 0.05844,0.1771 -0.04192,0.31317 -0.252633,0.34257 -0.05454,0.008 -0.124659,0.008 -0.155822,0 z m 3.513044,-0.008 c -0.372333,-0.0927 -0.462578,-0.57716 -0.149166,-0.80067 0.07407,-0.0528 0.129204,-0.066 0.276655,-0.066 0.147451,0 0.202587,0.0132 0.276655,0.066 0.253466,0.18076 0.249375,0.5841 -0.0075,0.74041 -0.102267,0.0622 -0.280247,0.0893 -0.396633,0.0603 z m 0.309121,-0.25972 c 0.121042,-0.14384 0.07404,-0.3521 -0.0953,-0.42222 -0.16184,-0.067 -0.341308,0.0723 -0.341308,0.26498 0,0.0385 0.03301,0.10928 0.07335,0.15724 0.05834,0.0693 0.09549,0.0872 0.181633,0.0872 0.08614,0 0.123288,-0.0177 0.181632,-0.0872 z m -11.7896564,-0.005 c -0.06348,-0.14413 -0.148709,-0.3361 -0.189406,-0.42659 l -0.074,-0.16457 0.118538,0.009 0.118535,0.009 0.100797,0.23938 0.100793,0.23939 0.112059,-0.24645 0.112057,-0.24649 h 0.108113 c 0.05946,0 0.108111,0.006 0.108111,0.0138 0,0.008 -0.08832,0.19888 -0.196273,0.425 -0.244189,0.51143 -0.25762,0.51622 -0.419328,0.14902 z m 0.700593,-0.16289 v -0.42496 h 0.29355 0.293546 l -0.0133,0.0695 c -0.01214,0.0636 -0.02804,0.0702 -0.186033,0.0779 -0.170861,0.008 -0.172753,0.009 -0.174012,0.0933 -0.0013,0.0846 -6.74e-4,0.085 0.175798,0.0935 0.165773,0.008 0.17707,0.0129 0.17707,0.0765 0,0.0636 -0.0115,0.0687 -0.173716,0.0765 -0.173187,0.008 -0.173739,0.009 -0.180765,0.0993 l -0.007,0.0908 0.187845,0.008 c 0.1815,0.008 0.188148,0.0109 0.196809,0.0862 l 0.009,0.0779 h -0.299357 -0.299357 z m 0.736607,0 v -0.42496 h 0.2511604 c 0.211191,0 0.263035,0.009 0.325804,0.0587 0.09651,0.0759 0.102894,0.23334 0.01333,0.32868 -0.05643,0.0601 -0.05772,0.0693 -0.01619,0.11516 0.03818,0.0422 0.162506,0.29891 0.162506,0.33553 0,0.006 -0.05052,0.0119 -0.112275,0.0119 -0.108393,0 -0.115008,-0.006 -0.191237,-0.16109 -0.04822,-0.0984 -0.103768,-0.16971 -0.142701,-0.18324 -0.06182,-0.0215 -0.06374,-0.0167 -0.06374,0.1611 v 0.18323 H 10.064171 9.9508486 Z m 0.4269364,-0.12988 c 0.05352,-0.0645 -9.64e-4,-0.1372 -0.11107,-0.14815 -0.08504,-0.008 -0.08922,-0.004 -0.08922,0.0921 0,0.0923 0.007,0.10096 0.08152,0.10096 0.04484,0 0.09828,-0.0202 0.118764,-0.0449 z m 0.394663,0.12988 v -0.42496 h 0.106242 c 0.09716,0 0.12439,0.0215 0.318608,0.24083 0.116804,0.13183 0.218795,0.23973 0.226649,0.23976 0.0079,4e-5 0.01015,-0.10835 0.0051,-0.24082 l -0.0092,-0.24086 h 0.115406 0.115406 v 0.42495 0.42496 h -0.09208 c -0.07995,0 -0.121327,-0.0346 -0.314195,-0.25496 -0.122165,-0.13961 -0.230533,-0.25387 -0.240813,-0.2539 -0.01028,-3e-5 -0.01458,0.11471 -0.0096,0.25496 l 0.0091,0.25506 H 10.887725 10.77239 Z m 2.436463,0 v -0.42496 h 0.25778 c 0.178041,0 0.28745,0.0141 0.353691,0.0455 0.241481,0.11461 0.293357,0.49621 0.09273,0.68214 -0.102852,0.0953 -0.20549,0.12229 -0.465229,0.12229 h -0.238969 z m 0.519252,0.19707 c 0.09553,-0.0751 0.123343,-0.21921 0.06435,-0.33328 -0.04839,-0.0936 -0.08446,-0.11095 -0.257796,-0.12422 l -0.113325,-0.009 -0.0082,0.262 -0.0082,0.26203 h 0.124731 c 0.08272,0 0.149525,-0.0196 0.198327,-0.0579 z m 1.83222,-0.19707 v -0.42496 h 0.283312 0.283309 v 0.0708 c 0,0.0684 -0.0065,0.0708 -0.185946,0.0708 h -0.185946 l 0.0089,0.0921 c 0.0089,0.0921 0.0089,0.0921 0.185946,0.10051 0.166775,0.008 0.177066,0.0125 0.177066,0.0779 0,0.0667 -0.0075,0.0695 -0.185858,0.0695 h -0.185862 l 0.0088,0.10325 0.0088,0.10327 0.180909,0.003 c 0.175593,0.003 0.181153,0.005 0.189299,0.0809 l 0.0084,0.0779 h -0.295541 -0.295544 z m 1.699861,0.0708 v -0.35416 h -0.141655 c -0.132213,0 -0.141657,-0.005 -0.141657,-0.0708 v -0.0708 h 0.396636 0.396633 v 0.0708 c 0,0.0661 -0.0094,0.0708 -0.141654,0.0708 h -0.141658 v 0.35416 0.35413 h -0.113321 -0.113324 z m 0.509526,0.1629 c 0.04512,-0.10518 0.126692,-0.29323 0.181263,-0.4179 l 0.09922,-0.22663 h 0.135198 0.135197 l 0.121748,0.31163 c 0.06696,0.17141 0.140616,0.35946 0.163677,0.41789 l 0.04193,0.10624 h -0.114567 c -0.101828,0 -0.117864,-0.009 -0.144199,-0.085 -0.02901,-0.0832 -0.03368,-0.085 -0.222401,-0.085 -0.188722,0 -0.193396,0.003 -0.222403,0.085 -0.02628,0.0754 -0.04249,0.085 -0.143164,0.085 h -0.113537 z m 0.495965,-0.23447 c -0.07397,-0.20967 -0.08829,-0.22117 -0.135258,-0.10874 -0.0941,0.22518 -0.0946,0.22281 0.04736,0.22281 h 0.128143 z m 0.439386,0 v -0.42496 l 0.276229,9e-5 c 0.225641,1e-4 0.293137,0.0103 0.368563,0.0564 0.283672,0.17296 0.27195,0.58526 -0.02107,0.74096 -0.07561,0.0402 -0.160159,0.0525 -0.361219,0.0525 h -0.262506 z m 0.553744,0.18545 c 0.09283,-0.0928 0.0968,-0.28028 0.0079,-0.37488 -0.04789,-0.051 -0.09204,-0.0656 -0.198319,-0.0656 h -0.136714 v 0.25499 0.25496 h 0.128776 c 0.09895,0 0.144884,-0.0161 0.198318,-0.0695 z"
       id="path1976"
       inkscape:connector-curvature="0" />
  </g>
</svg>
